<svg width="17" height="18" viewBox="0 0 17 18" fill="none" xmlns="http://www.w3.org/2000/svg">
<path d="M9.25122 17.189C8.86222 17.578 8.24703 17.602 7.82971 17.2616L7.74878 17.189L0.311279 9.75147C-0.103653 9.33654 -0.103653 8.66396 0.311279 8.24903L7.74878 0.811529C8.16371 0.396597 8.83629 0.396597 9.25122 0.811529C9.66615 1.22646 9.66615 1.89904 9.25122 2.31397L3.62744 7.93775L15.9375 7.93775C16.5243 7.93775 17 8.41345 17 9.00025C17 9.58705 16.5243 10.0627 15.9375 10.0627L3.62744 10.0627L9.25122 15.6865L9.32385 15.7675C9.66422 16.1848 9.64022 16.8 9.25122 17.189Z" fill="#AEAEAE"/>
</svg>
