<svg width="20" height="20" viewBox="0 0 20 20" fill="none" xmlns="http://www.w3.org/2000/svg">
<path d="M16.3636 17.8289V10.4605C16.3636 10.2162 16.2678 9.98204 16.0973 9.80931C15.9268 9.63658 15.6957 9.53947 15.4545 9.53947H4.54545C4.30435 9.53947 4.07319 9.63658 3.9027 9.80931C3.73221 9.98204 3.63636 10.2162 3.63636 10.4605V17.8289C3.63636 18.3376 3.22935 18.75 2.72727 18.75C2.2252 18.75 1.81818 18.3376 1.81818 17.8289V10.4605C1.81818 9.72769 2.10572 9.02508 2.61719 8.50689C3.12865 7.9887 3.82214 7.69737 4.54545 7.69737H15.4545C16.1779 7.69737 16.8714 7.9887 17.3828 8.50689C17.8943 9.02508 18.1818 9.72769 18.1818 10.4605V17.8289C18.1818 18.3376 17.7748 18.75 17.2727 18.75C16.7707 18.75 16.3636 18.3376 16.3636 17.8289Z" fill="#160B02"/>
<path d="M19.0909 16.9079C19.593 16.9079 20 17.3203 20 17.8289C20 18.3376 19.593 18.75 19.0909 18.75H0.909091C0.407014 18.75 0 18.3376 0 17.8289C0 17.3203 0.407014 16.9079 0.909091 16.9079H19.0909ZM3.53427 13.6455L3.49432 13.7175C3.24767 14.1118 2.74167 14.2609 2.32067 14.0476C1.8716 13.8201 1.68953 13.2667 1.91406 12.8117L2.61186 13.1652C1.9626 12.8363 1.91787 12.8128 1.91495 12.8108L1.91584 12.8081C1.91651 12.8068 1.91776 12.8051 1.9185 12.8036C1.92004 12.8006 1.92202 12.7972 1.92383 12.7937C1.92749 12.7867 1.93144 12.7783 1.93626 12.7695C1.94587 12.7518 1.95814 12.7307 1.97266 12.7065C2.00174 12.658 2.04127 12.5967 2.09251 12.5275C2.19478 12.3893 2.34575 12.2147 2.55682 12.0436C2.99048 11.6921 3.6428 11.3816 4.54545 11.3816C5.60558 11.3816 6.43088 12.0981 6.93182 12.5041C7.56725 13.0191 7.87831 13.2237 8.18182 13.2237C8.48533 13.2237 8.79639 13.0191 9.43182 12.5041C9.93275 12.0981 10.7581 11.3816 11.8182 11.3816C12.8783 11.3816 13.7036 12.0981 14.2045 12.5041C14.84 13.0191 15.151 13.2237 15.4545 13.2237C15.9155 13.2237 16.1723 13.0737 16.3068 12.9646C16.3797 12.9055 16.4277 12.8499 16.4533 12.8153L16.4711 12.7901C16.4699 12.7923 16.4685 12.7956 16.4666 12.7991L16.4648 12.8009C16.6926 12.3538 17.2338 12.1741 17.6793 12.3998C18.1284 12.6273 18.3105 13.1807 18.0859 13.6356L17.2727 13.2237C18.0322 13.6084 18.082 13.6344 18.0851 13.6365L18.0842 13.6392C18.0835 13.6406 18.0822 13.6423 18.0815 13.6437C18.08 13.6468 18.078 13.6501 18.0762 13.6536C18.0725 13.6607 18.0686 13.669 18.0637 13.6779C18.0541 13.6956 18.0419 13.7167 18.0273 13.7409C17.9983 13.7894 17.9587 13.8506 17.9075 13.9199C17.8052 14.058 17.6542 14.2327 17.4432 14.4038C17.0095 14.7553 16.3572 15.0658 15.4545 15.0658C14.3944 15.0658 13.5691 14.3493 13.0682 13.9433C12.4328 13.4282 12.1217 13.2237 11.8182 13.2237C11.5147 13.2237 11.2036 13.4282 10.5682 13.9433C10.0672 14.3493 9.24195 15.0658 8.18182 15.0658C7.12169 15.0658 6.29639 14.3493 5.79545 13.9433C5.16003 13.4282 4.84896 13.2237 4.54545 13.2237C4.08447 13.2237 3.8277 13.3737 3.69318 13.4827C3.62026 13.5418 3.57229 13.5975 3.5467 13.632C3.5344 13.6487 3.52762 13.6595 3.52628 13.6617C3.52666 13.6611 3.52764 13.6596 3.52894 13.6572C3.5301 13.6551 3.53153 13.6518 3.53338 13.6482C3.53379 13.6474 3.53382 13.6464 3.53427 13.6455ZM4.54545 8.61842V5.85526C4.54545 5.34658 4.95247 4.93421 5.45455 4.93421C5.95662 4.93421 6.36364 5.34658 6.36364 5.85526V8.61842C6.36364 9.1271 5.95662 9.53947 5.45455 9.53947C4.95247 9.53947 4.54545 9.1271 4.54545 8.61842ZM9.09091 8.61842V5.85526C9.09091 5.34658 9.49792 4.93421 10 4.93421C10.5021 4.93421 10.9091 5.34658 10.9091 5.85526V8.61842C10.9091 9.1271 10.5021 9.53947 10 9.53947C9.49792 9.53947 9.09091 9.1271 9.09091 8.61842ZM13.6364 8.61842V5.85526C13.6364 5.34658 14.0434 4.93421 14.5455 4.93421C15.0475 4.93421 15.4545 5.34658 15.4545 5.85526V8.61842C15.4545 9.1271 15.0475 9.53947 14.5455 9.53947C14.0434 9.53947 13.6364 9.1271 13.6364 8.61842ZM5.46342 1.25C5.9655 1.25 6.37251 1.66237 6.37251 2.17105C6.37251 2.67974 5.9655 3.09211 5.46342 3.09211H5.45455C4.95247 3.09211 4.54545 2.67974 4.54545 2.17105C4.54545 1.66237 4.95247 1.25 5.45455 1.25H5.46342ZM10.0089 1.25C10.511 1.25 10.918 1.66237 10.918 2.17105C10.918 2.67974 10.511 3.09211 10.0089 3.09211H10C9.49792 3.09211 9.09091 2.67974 9.09091 2.17105C9.09091 1.66237 9.49792 1.25 10 1.25H10.0089ZM14.5543 1.25L14.6476 1.2545C15.106 1.30168 15.4634 1.69417 15.4634 2.17105C15.4634 2.64793 15.106 3.04043 14.6476 3.08761L14.5543 3.09211H14.5455C14.0434 3.09211 13.6364 2.67974 13.6364 2.17105C13.6364 1.66237 14.0434 1.25 14.5455 1.25H14.5543Z" fill="#160B02"/>
</svg>
