<svg width="25" height="26" viewBox="0 0 25 26" fill="none" xmlns="http://www.w3.org/2000/svg">
<path d="M22.7273 13C22.7273 7.35163 18.1484 2.77273 12.5 2.77273C6.85163 2.77273 2.27273 7.35163 2.27273 13C2.27273 18.6484 6.85163 23.2273 12.5 23.2273C18.1484 23.2273 22.7273 18.6484 22.7273 13ZM11.3636 6.18182C11.3636 5.55422 11.8724 5.04545 12.5 5.04545C13.1276 5.04545 13.6364 5.55422 13.6364 6.18182V11.8636H17.6136C18.2412 11.8636 18.75 12.3724 18.75 13C18.75 13.6276 18.2412 14.1364 17.6136 14.1364H12.5C11.8724 14.1364 11.3636 13.6276 11.3636 13V6.18182ZM25 13C25 19.9036 19.4036 25.5 12.5 25.5C5.59644 25.5 0 19.9036 0 13C0 6.09644 5.59644 0.5 12.5 0.5C19.4036 0.5 25 6.09644 25 13Z" fill="white"/>
</svg>
