<svg width="20" height="20" viewBox="0 0 20 20" fill="none" xmlns="http://www.w3.org/2000/svg">
<path d="M9.55504 4.54885C9.55504 4.04677 9.95472 3.63975 10.4477 3.63975C10.9408 3.63975 11.3404 4.04677 11.3404 4.54885V9.44145L14.4178 11.0084L14.4972 11.0546C14.8794 11.3012 15.0238 11.8072 14.8171 12.2282C14.6104 12.6492 14.1261 12.8355 13.703 12.6721L13.6193 12.6348L10.0485 10.8166C9.74603 10.6626 9.55504 10.3478 9.55504 10.0034V4.54885Z" fill="#160B02"/>
<path d="M9.97411 0.0115039C11.8979 -0.0825237 13.8063 0.401485 15.462 1.40356C17.1177 2.40572 18.4473 3.88213 19.2856 5.64807L19.3213 5.7333C19.4762 6.16629 19.2868 6.65677 18.8706 6.86168C18.4268 7.0802 17.8926 6.89113 17.678 6.43909L17.5447 6.17098C16.8551 4.84496 15.8199 3.73562 14.5501 2.96695C13.1954 2.14701 11.6336 1.75095 10.0595 1.82792C8.48555 1.90489 6.9684 2.45104 5.69715 3.39931C4.42592 4.34763 3.45597 5.65582 2.90919 7.16087C2.36246 8.66594 2.26328 10.3018 2.62238 11.8644C2.98149 13.4268 3.78342 14.8475 4.92911 15.9491C6.07498 17.0507 7.51414 17.7849 9.06658 18.0602C10.6191 18.3355 12.2168 18.1398 13.6609 17.4974C14.1127 17.2964 14.6395 17.5069 14.8369 17.967C15.0341 18.4271 14.8274 18.9628 14.3757 19.1638C12.6108 19.9489 10.6581 20.1882 8.76059 19.8518C6.86318 19.5154 5.10478 18.6182 3.70426 17.2719C2.30368 15.9254 1.32214 14.1888 0.883175 12.279C0.44426 10.3692 0.567132 8.3701 1.23537 6.53054C1.90364 4.69093 3.0885 3.09179 4.64229 1.93268C6.19604 0.773705 8.05036 0.105581 9.97411 0.0115039ZM17.5987 17.7309L17.6894 17.7353C18.1396 17.7818 18.4914 18.1692 18.4914 18.64C18.4913 19.1107 18.1396 19.4982 17.6894 19.5446L17.5987 19.5491H17.5891C17.0963 19.5489 16.6965 19.1419 16.6964 18.64C16.6964 18.138 17.0962 17.731 17.5891 17.7309H17.5987ZM16.6964 15.0036V9.54902C16.6964 9.04703 17.0962 8.64006 17.5891 8.63992C18.0821 8.63992 18.4818 9.04694 18.4818 9.54902V15.0036C18.4817 15.5056 18.0821 15.9127 17.5891 15.9127C17.0963 15.9125 16.6965 15.5055 16.6964 15.0036Z" fill="#160B02"/>
</svg>
