<svg width="21" height="16" viewBox="0 0 21 16" fill="none" xmlns="http://www.w3.org/2000/svg">
<g opacity="0.8">
<path d="M10.4995 0.125C14.1948 0.125 16.8164 2.02796 18.4723 3.85458C19.3004 4.76814 19.9031 5.67799 20.2993 6.35973C20.498 6.70171 20.647 6.98986 20.7476 7.1959C20.7978 7.29887 20.8361 7.38186 20.8629 7.44124C20.8763 7.4709 20.8871 7.49456 20.8948 7.51214C20.8985 7.52071 20.9012 7.52797 20.9036 7.53352C20.9048 7.53633 20.906 7.53941 20.9069 7.5414L20.908 7.54365L20.9091 7.54478C20.9092 7.54529 20.9001 7.54951 19.8752 7.99944L20.9091 8.45522L20.908 8.45635L20.9036 8.46535C20.9012 8.47097 20.8986 8.47906 20.8948 8.48786C20.8871 8.50543 20.8762 8.52922 20.8629 8.55876C20.8361 8.61818 20.7978 8.70111 20.7476 8.8041C20.647 9.01009 20.498 9.29727 20.2993 9.63915C19.9031 10.3209 19.3005 11.2317 18.4723 12.1454C16.8164 13.972 14.1947 15.875 10.4995 15.875C6.80422 15.8749 4.18244 13.972 2.52664 12.1454C1.6984 11.2317 1.09577 10.3209 0.699608 9.63915C0.501102 9.2975 0.352975 9.01001 0.252462 8.8041C0.202234 8.7012 0.163898 8.61817 0.137105 8.55876C0.123821 8.5293 0.112866 8.50541 0.105245 8.48786C0.101425 8.47906 0.0977496 8.47097 0.0953568 8.46535C0.0942918 8.46285 0.0939337 8.46043 0.0931596 8.4586L0.0920609 8.45635L0.0909623 8.45522L1.12478 7.99944C0.0908703 7.54554 0.0907575 7.54526 0.0909623 7.54478L0.0920609 7.54365L0.0931596 7.5414C0.0940009 7.53941 0.0941604 7.53633 0.0953568 7.53352C0.0977398 7.52793 0.101462 7.52085 0.105245 7.51214C0.112878 7.49456 0.123742 7.47087 0.137105 7.44124C0.163891 7.38184 0.202183 7.29891 0.252462 7.1959C0.35303 6.98986 0.500892 6.7017 0.699608 6.35973C1.09574 5.67801 1.69849 4.7682 2.52664 3.85458C4.18244 2.02798 6.80422 0.125126 10.4995 0.125ZM10.4995 2.42982C7.6327 2.42995 5.56668 3.88788 4.1757 5.42227C3.48051 6.18917 2.96947 6.96047 2.63321 7.53915C2.53232 7.71278 2.44793 7.86812 2.37943 7.99944C2.44802 8.13095 2.5321 8.28685 2.63321 8.46085C2.96945 9.03949 3.48059 9.80976 4.1757 10.5766C5.56668 12.1111 7.63255 13.5701 10.4995 13.5702C13.3666 13.5702 15.4333 12.1111 16.8243 10.5766C17.5192 9.80995 18.0295 9.03941 18.3657 8.46085C18.4668 8.28697 18.5509 8.1309 18.6195 7.99944C18.551 7.8681 18.4666 7.71277 18.3657 7.53915C18.0295 6.96047 17.5195 6.18916 16.8243 5.42227C15.4333 3.88775 13.3665 2.42982 10.4995 2.42982ZM2.1575 8.45635L2.1586 8.45522L2.1575 8.45297V8.45635ZM1.12478 7.99944L0.0909623 8.45522C-0.0303208 8.16534 -0.0303208 7.83466 0.0909623 7.54478L1.12478 7.99944ZM20.9091 7.54478C21.0303 7.83464 21.0303 8.16537 20.9091 8.45522L19.8752 7.99944L20.9091 7.54478Z" fill="#B2451D"/>
<path d="M12.1873 7.99981C12.1873 7.04512 11.4318 6.2712 10.4998 6.2712C9.56784 6.2712 8.81232 7.04512 8.81232 7.99981C8.81232 8.9545 9.56784 9.72843 10.4998 9.72843C11.4318 9.72843 12.1873 8.9545 12.1873 7.99981ZM14.4373 7.99981C14.4373 10.2274 12.6745 12.0333 10.4998 12.0333C8.3252 12.0333 6.56231 10.2274 6.56231 7.99981C6.56231 5.7722 8.3252 3.96637 10.4998 3.96637C12.6745 3.96637 14.4373 5.7722 14.4373 7.99981Z" fill="#B2451D"/>
</g>
</svg>
