<svg width="25" height="26" viewBox="0 0 25 26" fill="none" xmlns="http://www.w3.org/2000/svg">
<path d="M18.1818 13.0905L12.9217 15.2603C12.651 15.3719 12.349 15.3719 12.0783 15.2603L6.81818 13.0905V17.6876L6.83039 17.8009C6.89009 18.0979 7.19119 18.6116 8.18648 19.1249C9.27116 19.6842 10.8226 20.0313 12.5 20.0313L13.1226 20.0153C14.5579 19.9412 15.8645 19.6143 16.8135 19.1249C17.9509 18.5383 18.1818 17.9513 18.1818 17.6876V13.0905ZM4.19589 9.48455L12.5 12.9097L20.803 9.48455L12.5 6.05938L4.19589 9.48455ZM25 16.5157C25 17.1629 24.4912 17.6876 23.8636 17.6876C23.236 17.6876 22.7273 17.1629 22.7273 16.5157V11.2149L20.4545 12.1521V17.6876C20.4545 19.2886 19.2484 20.4895 17.8289 21.2215C16.4483 21.9333 14.6768 22.3244 12.8629 22.3704L12.5 22.375C10.5609 22.375 8.64367 21.9807 7.17108 21.2215C5.84026 20.5353 4.69746 19.4368 4.55988 17.9828L4.54545 17.6876V12.1521L0.714666 10.5729C0.283236 10.3949 0 9.96373 0 9.48455C0 9.00537 0.283236 8.5742 0.714666 8.39623L12.0783 3.7088L12.1804 3.67218C12.4234 3.59874 12.6846 3.6111 12.9217 3.7088L24.2853 8.39623L24.4407 8.4752C24.7835 8.68352 25 9.0655 25 9.48455V16.5157Z" fill="white"/>
</svg>
