<svg width="25" height="26" viewBox="0 0 25 26" fill="none" xmlns="http://www.w3.org/2000/svg">
<path d="M20.9225 0.5C21.4434 0.500102 21.946 0.679055 22.3483 1.00302L22.5138 1.1496L22.5227 1.15848L22.5215 1.15959L24.3493 2.98512L24.497 3.15168C24.8207 3.55398 25 4.05666 25 4.57746C25 5.09828 24.8208 5.60095 24.497 6.00324L24.3493 6.16981L23.0745 7.44457L23.0734 7.44346C22.5139 8.00296 21.7808 8.34849 21.0003 8.42618L20.6627 8.44395H19.1348C18.8708 8.44403 18.6164 8.53557 18.4141 8.70156L18.3308 8.77707L16.9295 10.1773C17.7448 11.3243 18.1931 12.7034 18.1931 14.1293L18.1809 14.4646C18.1229 15.2453 17.8638 16.0003 17.4269 16.6544C16.9278 17.4016 16.2182 17.9844 15.3882 18.3289L14.34 18.762C14.1344 18.8487 13.9583 18.9936 13.8347 19.1795C13.7103 19.3666 13.6445 19.5867 13.6448 19.8113V19.8146L13.6382 20.0956C13.5686 21.501 12.9789 22.8347 11.9792 23.8344C10.913 24.9004 9.46721 25.5 7.95949 25.5C5.8485 25.5 3.82347 24.6608 2.33077 23.1681C0.838384 21.6756 0.000141846 19.6512 0 17.5405C0 16.0327 0.59942 14.5859 1.66563 13.5197C2.73181 12.4536 4.17764 11.8552 5.68535 11.8552H5.68757L5.85525 11.8429C6.02062 11.8187 6.17907 11.7575 6.3194 11.6642C6.5065 11.5398 6.65257 11.3629 6.73914 11.1556L7.16998 10.1129L7.17109 10.1107L7.31101 9.80532C7.66359 9.10667 8.19168 8.5087 8.84561 8.07196C9.593 7.57285 10.472 7.30712 11.3707 7.30688L11.7094 7.31465C13.014 7.37944 14.2658 7.81908 15.3216 8.56942L16.7229 7.16918L16.7984 7.08479C16.964 6.88269 17.0559 6.62878 17.0561 6.36524V4.83619L17.0727 4.49973C17.1503 3.71873 17.4955 2.9841 18.0554 2.42436L19.3224 1.15848L19.3302 1.1496L19.4968 1.00302C19.8991 0.679238 20.4017 0.5 20.9225 0.5ZM4.88141 16.7355C5.32539 16.2918 6.04531 16.2918 6.4893 16.7355L8.76344 19.0096L8.84117 19.0962C9.20572 19.5428 9.17984 20.2022 8.76344 20.6186C8.3472 21.0346 7.68867 21.0603 7.24216 20.6963L7.15555 20.6186L4.88141 18.3445C4.43735 17.9004 4.43735 17.1795 4.88141 16.7355ZM19.6633 4.03336C19.4502 4.24653 19.3303 4.53586 19.3302 4.8373V6.16981H20.6627L20.7749 6.16314C21.0352 6.13726 21.2801 6.02218 21.4666 5.83557L22.7248 4.57635L20.9214 2.77414L19.6633 4.03336ZM2.27414 17.5405C2.27428 19.0482 2.87369 20.4941 3.93977 21.5602C5.00596 22.6263 6.45177 23.2259 7.95949 23.2259C8.86407 23.2259 9.73162 22.866 10.3713 22.2265C10.9311 21.6667 11.2765 20.9321 11.354 20.1511L11.3707 19.8146C11.3697 19.1409 11.5684 18.4814 11.9415 17.9203C12.3148 17.3589 12.8461 16.9207 13.4683 16.6611L13.4727 16.6599L14.5165 16.228L14.6698 16.158C15.019 15.9817 15.3176 15.7176 15.5359 15.3907C15.7853 15.0173 15.9187 14.5784 15.919 14.1293L15.9134 13.9028C15.8767 13.1633 15.6586 12.4497 15.2872 11.8196L13.1985 13.9094C12.7545 14.3534 12.0346 14.3532 11.5906 13.9094C11.1465 13.4654 11.1465 12.7456 11.5906 12.3015L13.6804 10.2106C13.0503 9.8392 12.3356 9.62324 11.5961 9.58657L11.3707 9.58102C10.9214 9.5812 10.4818 9.71346 10.1082 9.963C9.73514 10.2122 9.44327 10.5661 9.2709 10.9801L9.27201 10.9813L8.84006 12.0273L8.83783 12.0306C8.57818 12.653 8.14024 13.1851 7.57862 13.5585C7.0177 13.9314 6.35886 14.1291 5.68535 14.1282C4.78078 14.1282 3.91322 14.488 3.27352 15.1276C2.63379 15.7673 2.27414 16.6358 2.27414 17.5405Z" fill="white"/>
</svg>
