<svg width="25" height="26" viewBox="0 0 25 26" fill="none" xmlns="http://www.w3.org/2000/svg">
<path d="M10 14.7852V23.1189H15V14.7852H10ZM25 21.9284C25 22.8757 24.6046 23.785 23.9014 24.4548C23.1981 25.1244 22.2444 25.5 21.25 25.5H3.75C2.75559 25.5 1.80186 25.1244 1.09863 24.4548C0.395371 23.785 1.16902e-10 22.8757 1.16901e-10 21.9284V11.2136C-4.29747e-06 10.6944 0.118484 10.1813 0.3479 9.71034C0.577466 9.23913 0.912807 8.82144 1.32935 8.4861L10.0732 1.34872L10.0793 1.34407L10.3418 1.15107C10.9714 0.728985 11.7247 0.5 12.5 0.5L12.8308 0.513952C13.4882 0.569386 14.1186 0.789316 14.6582 1.15107L14.9207 1.34407L14.9268 1.34872L23.6707 8.4861L23.8232 8.61515C24.1696 8.92624 24.4512 9.29799 24.6521 9.71034C24.8815 10.1813 25 10.6944 25 11.2136V21.9284ZM17.5 23.1189H21.25C21.5814 23.1189 21.8994 22.9944 22.1338 22.7713C22.3682 22.548 22.5 22.2442 22.5 21.9284V11.2136L22.4927 11.0846C22.478 10.956 22.4414 10.8303 22.384 10.7125C22.3075 10.5555 22.1957 10.4162 22.0569 10.3044L22.0508 10.2986L13.3069 3.16126V3.16242C13.1094 3.00344 12.8657 2.90721 12.6099 2.88571L12.5 2.88106C12.2046 2.88106 11.9187 2.98081 11.6931 3.16242L11.6919 3.16126L2.94922 10.2986L2.94312 10.3044C2.80427 10.4162 2.69249 10.5555 2.61597 10.7125C2.5395 10.8695 2.5 11.0406 2.5 11.2136V21.9284C2.5 22.2442 2.63179 22.548 2.86621 22.7713C3.1006 22.9944 3.41863 23.1189 3.75 23.1189H7.5V14.7852C7.50015 14.1539 7.76372 13.5481 8.23242 13.1017C8.70123 12.6554 9.33709 12.4042 10 12.4042H15C15.6629 12.4042 16.2988 12.6554 16.7676 13.1017C17.2363 13.5481 17.4998 14.1539 17.5 14.7852V23.1189Z" fill="white"/>
</svg>
