<svg width="43" height="55" viewBox="0 0 43 55" fill="none" xmlns="http://www.w3.org/2000/svg">
<path d="M5.01667 39.6599H11.4667L20.0667 48.2653L28.6667 39.6599H37.9833V5.2381H5.01667V39.6599ZM43 41.9048L42.9965 42.059C42.9221 43.5893 41.7467 44.8167 40.281 44.8943H30.4583L21.1417 54.6259L20.0667 55L18.9917 54.6259L5.01667 39.6599L0 34.4218V2.9932C0 1.39181 1.2044 0.0838954 2.71899 0.00365381L2.86667 0H33.6833L43 11.2245V41.9048Z" fill="white"/>
<path d="M21.8583 18.483C21.8583 17.7804 22.4038 17.2109 23.0767 17.2109H28.3083C28.9812 17.2109 29.5267 17.7804 29.5267 18.483V23.1973C29.5267 23.8998 28.9812 24.4694 28.3083 24.4694H23.0767C22.4038 24.4694 21.8583 23.8998 21.8583 23.1973V18.483Z" fill="white"/>
<path d="M13.4733 18.483C13.4733 17.7804 14.0188 17.2109 14.6917 17.2109H19.9233C20.5962 17.2109 21.1417 17.7804 21.1417 18.483V23.1973C21.1417 23.8998 20.5962 24.4694 19.9233 24.4694H14.6917C14.0188 24.4694 13.4733 23.8998 13.4733 23.1973V18.483Z" fill="white"/>
<path d="M9.31667 25.4422H33.6833V29.932C33.6833 31.1718 32.7207 32.1769 31.5333 32.1769H11.4667C10.2793 32.1769 9.31667 31.1718 9.31667 29.932V25.4422Z" fill="white"/>
<path d="M9.31667 22.8231C9.31667 21.9966 9.95839 21.3265 10.75 21.3265H11.1083C11.8999 21.3265 12.5417 21.9966 12.5417 22.8231V25.4422H9.31667V22.8231Z" fill="white"/>
<path d="M30.4583 22.8231C30.4583 21.9966 31.1001 21.3265 31.8917 21.3265H32.25C33.0416 21.3265 33.6833 21.9966 33.6833 22.8231V25.4422H30.4583V22.8231Z" fill="white"/>
<path d="M12.1833 32.1769H14.3333V32.551C14.3333 33.1709 13.852 33.6735 13.2583 33.6735C12.6646 33.6735 12.1833 33.1709 12.1833 32.551V32.1769Z" fill="white"/>
<path d="M28.6667 32.1769H30.8167V32.551C30.8167 33.1709 30.3354 33.6735 29.7417 33.6735C29.148 33.6735 28.6667 33.1709 28.6667 32.551V32.1769Z" fill="white"/>
</svg>
