<svg width="21" height="20" viewBox="0 0 21 20" fill="none" xmlns="http://www.w3.org/2000/svg">
<path d="M7.75998 14.5548C7.76002 14.0735 7.95137 13.6118 8.29171 13.2715C8.63209 12.9311 9.09364 12.7397 9.57497 12.7397H9.73095L9.82046 12.7353C10.0282 12.7146 10.2237 12.6228 10.3726 12.4738L11.1117 11.7347L11.2092 11.6505C11.4484 11.4713 11.7636 11.4202 12.0511 11.5202C13.1183 11.892 14.2807 11.8902 15.347 11.5158C16.4132 11.1414 17.3209 10.4161 17.9215 9.45878C18.522 8.50142 18.7804 7.36819 18.6535 6.24518C18.5265 5.12247 18.0219 4.0761 17.2231 3.27708C16.4241 2.478 15.3771 1.97364 14.2543 1.84665C13.1313 1.71972 11.9981 1.97721 11.0408 2.57782C10.0835 3.1784 9.35825 4.08614 8.98386 5.15242C8.60948 6.21878 8.60855 7.38116 8.98031 8.44843C9.09466 8.77712 9.01105 9.14267 8.76496 9.38876L2.58086 15.5722C2.41072 15.7423 2.31511 15.9733 2.31499 16.2139V18.1849H5.03749V17.2774C5.03752 16.7961 5.22888 16.3344 5.56922 15.9941C5.90959 15.6537 6.37115 15.4623 6.85248 15.4623H7.75998V14.5548ZM9.57497 15.4623C9.57497 15.9437 9.38357 16.4053 9.04324 16.7456C8.70286 17.086 8.24134 17.2774 7.75998 17.2774H6.85248V18.1849C6.85248 18.6663 6.66108 19.1279 6.32074 19.4682C5.98037 19.8086 5.51885 20 5.03749 20H2.31499C1.83363 20 1.37212 19.8086 1.03174 19.4682C0.691404 19.1279 0.5 18.6663 0.5 18.1849V16.2139C0.500154 15.4919 0.787054 14.7994 1.2976 14.2889L7.09797 8.48743C6.76757 7.19126 6.82573 5.82174 7.27167 4.55153C7.78218 3.0974 8.77113 1.85918 10.0766 1.04015C11.382 0.22127 12.9269 -0.129968 14.4581 0.043107C15.9893 0.216247 17.4167 0.903244 18.5064 1.99289C19.596 3.08256 20.2838 4.51008 20.457 6.04134C20.63 7.5726 20.2779 9.11761 19.4591 10.423C18.6401 11.7285 17.4019 12.7175 15.9478 13.2281C14.6773 13.6741 13.3077 13.7316 12.0112 13.4009L11.6558 13.7572C11.2092 14.2039 10.6235 14.4795 10.0004 14.5415L9.73095 14.5548H9.57497V15.4623Z" fill="#160B02"/>
<path d="M14.5662 6.38713C14.8168 6.38713 15.02 6.18397 15.02 5.93336C15.02 5.68275 14.8168 5.4796 14.5662 5.4796C14.3156 5.4796 14.1125 5.68275 14.1125 5.93336C14.1125 6.18397 14.3156 6.38713 14.5662 6.38713Z" fill="#160B02"/>
<path d="M14.5662 5.4796C14.3156 5.4796 14.1125 5.68275 14.1125 5.93336C14.1125 6.18397 14.3156 6.38713 14.5662 6.38713C14.8168 6.38713 15.02 6.18397 15.02 5.93336C15.02 5.68275 14.8168 5.4796 14.5662 5.4796ZM15.9275 5.93336C15.9275 6.68519 15.318 7.29467 14.5662 7.29467C13.8144 7.29467 13.205 6.68519 13.205 5.93336C13.205 5.18154 13.8144 4.57206 14.5662 4.57206C15.318 4.57206 15.9275 5.18154 15.9275 5.93336Z" fill="#160B02"/>
</svg>
