<svg width="25" height="26" viewBox="0 0 25 26" fill="none" xmlns="http://www.w3.org/2000/svg">
<path d="M22.7273 18.0178C22.2528 18.1955 21.816 18.4805 21.4533 18.8641C21.0907 19.2476 20.8222 19.7099 20.6543 20.2116H21.5909C21.8923 20.2116 22.1812 20.0848 22.3944 19.8594C22.6075 19.634 22.7273 19.3284 22.7273 19.0096V18.0178ZM14.7727 13C14.7727 11.6724 13.7552 10.5962 12.5 10.5962C11.2448 10.5962 10.2273 11.6724 10.2273 13C10.2273 14.3276 11.2448 15.4039 12.5 15.4039C13.7552 15.4039 14.7727 14.3276 14.7727 13ZM22.7273 6.99041C22.7273 6.67164 22.6075 6.36602 22.3944 6.14062C22.1812 5.91521 21.8923 5.78849 21.5909 5.78849H6.70277C6.48158 6.93441 5.94717 7.99618 5.15359 8.83555C4.36 9.67492 3.35614 10.2402 2.27273 10.4741V19.0096C2.27273 19.3284 2.39254 19.634 2.60565 19.8594C2.81876 20.0848 3.10771 20.2116 3.40909 20.2116H18.2972C18.5184 19.0657 19.0528 18.0039 19.8464 17.1645C20.6401 16.3251 21.6438 15.7587 22.7273 15.5248V6.99041ZM17.0455 13C17.0455 15.6552 15.0104 17.8077 12.5 17.8077C9.98961 17.8077 7.95455 15.6552 7.95455 13C7.95455 10.3448 9.98961 8.19234 12.5 8.19234C15.0104 8.19234 17.0455 10.3448 17.0455 13ZM2.27273 7.98106C2.74703 7.80342 3.18412 7.51945 3.5467 7.13596C3.90927 6.75246 4.17775 6.29016 4.3457 5.78849H3.40909C3.10771 5.78849 2.81876 5.91521 2.60565 6.14062C2.39254 6.36602 2.27273 6.67164 2.27273 6.99041V7.98106ZM25 19.0096C25 19.966 24.6406 20.8828 24.0012 21.559C23.3619 22.2352 22.4951 22.6154 21.5909 22.6154H3.40909C2.50494 22.6154 1.63809 22.2352 0.998757 21.559C0.359429 20.8828 0 19.966 0 19.0096V6.99041C0 6.0341 0.359428 5.11723 0.998757 4.44102C1.63809 3.76481 2.50494 3.38464 3.40909 3.38464H21.5909C22.4951 3.38464 23.3619 3.76481 24.0012 4.44102C24.6406 5.11723 25 6.0341 25 6.99041V19.0096Z" fill="white"/>
</svg>
