<svg width="26" height="27" viewBox="0 0 26 27" fill="none" xmlns="http://www.w3.org/2000/svg">
<path d="M13.675 23.1936C14.0593 22.4981 14.9259 22.2504 15.6106 22.6406C16.2953 23.0311 16.5392 23.9114 16.1549 24.607C15.8405 25.176 15.3855 25.6538 14.8316 25.988C14.2776 26.3222 13.6456 26.4999 13.0001 26.5C12.3545 26.5 11.7215 26.3223 11.1673 25.988C10.6827 25.6956 10.2743 25.2929 9.96897 24.8158L9.844 24.607L9.78013 24.4744C9.49269 23.8031 9.74638 23.0067 10.3883 22.6406C11.0302 22.2746 11.8317 22.4692 12.2462 23.068L12.3239 23.1936L12.385 23.2881C12.4507 23.3774 12.5309 23.4503 12.6197 23.5039C12.7379 23.5752 12.8693 23.6111 13.0001 23.6111C13.1307 23.611 13.2612 23.575 13.3792 23.5039C13.4976 23.4325 13.6012 23.3269 13.675 23.1936ZM18.2127 8.8775C18.2126 7.40894 17.6537 6.00782 16.6714 4.98145C15.7518 4.02083 14.5327 3.46208 13.2556 3.39594L13.0001 3.38889C11.6308 3.38889 10.3084 3.95673 9.32747 4.98145C8.34519 6.00782 7.78627 7.40894 7.78619 8.8775L7.76676 9.87055C7.67853 12.1018 7.28805 13.7516 6.69203 15.07C6.14776 16.2736 5.45787 17.1326 4.82861 17.8333H21.1717C20.5414 17.1322 19.8511 16.2734 19.3069 15.07C18.6255 13.563 18.2127 11.6233 18.2127 8.8775ZM21.0564 8.8775C21.0564 11.3306 21.425 12.8333 21.8909 13.8639C22.2408 14.6376 22.6697 15.2055 23.1726 15.7753L23.7002 16.3536L23.7308 16.3875C24.0159 16.715 24.2126 17.1089 24.3084 17.5301L24.3431 17.712L24.3653 17.8954C24.402 18.3259 24.3345 18.7612 24.1654 19.1607C23.9721 19.6171 23.6529 20.011 23.242 20.2906C22.8818 20.5356 22.4651 20.6825 22.0326 20.7152L21.8465 20.7222H4.15101C3.65241 20.7218 3.1682 20.5695 2.75692 20.2892C2.34602 20.009 2.02633 19.6148 1.83354 19.1579C1.64095 18.7014 1.58069 18.1984 1.6572 17.7092L1.69191 17.5272C1.7882 17.1059 1.98645 16.712 2.27232 16.3847L2.30148 16.3536L2.82773 15.7753C3.32984 15.2057 3.75815 14.6376 4.10796 13.8639C4.51569 12.9621 4.84905 11.6987 4.92581 9.75347L4.94247 8.8775C4.94255 6.66874 5.78154 4.54249 7.28771 2.96853C8.79547 1.39308 10.8501 0.5 13.0001 0.5L13.4014 0.509874C15.4042 0.613725 17.2977 1.49154 18.7112 2.96853C20.2174 4.5425 21.0564 6.6687 21.0564 8.8775Z" fill="#160B02"/>
</svg>
