<svg width="17" height="17" viewBox="0 0 17 17" fill="none" xmlns="http://www.w3.org/2000/svg">
<path opacity="0.8" d="M14.1428 3.67198C14.1428 3.4559 14.0573 3.24818 13.9045 3.09536C13.7518 2.94258 13.544 2.85715 13.3279 2.85712C13.1657 2.85714 13.0085 2.90537 12.8756 2.99408L12.7524 3.09536L12.0423 3.80434L13.1944 4.95643L13.9034 4.2486L14.0058 4.1243C14.0945 3.9914 14.1428 3.83413 14.1428 3.67198ZM3.31324 12.5365C3.28593 12.5637 3.26589 12.5975 3.25454 12.6343L3.25339 12.6332L2.76883 14.2295L4.36869 13.745L4.42163 13.722L4.46652 13.6863L11.5278 6.62299L10.3756 5.47205L3.31324 12.5365ZM16.5 3.67198C16.4999 4.40804 16.2443 5.11831 15.7818 5.68267L15.5712 5.91516L14.1129 7.37225C14.0878 7.40292 14.062 7.43343 14.0335 7.46202C14.0036 7.4919 13.9724 7.52004 13.9402 7.54604L6.13084 15.3563C5.83031 15.6558 5.46064 15.8774 5.05467 16.0008L1.9758 16.9342L1.97235 16.9354C1.70776 17.0148 1.42653 17.0211 1.15861 16.9538C0.890496 16.8864 0.645303 16.7474 0.449608 16.5521C0.253868 16.3567 0.114633 16.1113 0.0467654 15.8432C-0.0209733 15.5752 -0.0150424 15.2942 0.0640301 15.0294L0.0651811 15.0237L0.999775 11.9461V11.9438L1.05157 11.793C1.18177 11.4459 1.3855 11.1303 1.64893 10.8676L9.45486 3.05738C9.48041 3.02595 9.50846 2.99573 9.53773 2.96646C9.56705 2.93715 9.59716 2.90917 9.62866 2.88359L11.0846 1.42881L11.3183 1.21819C11.8827 0.755953 12.592 0.500017 13.3279 0.5C14.169 0.500106 14.9764 0.834058 15.5712 1.42881C16.1659 2.02365 16.5 2.83087 16.5 3.67198Z" fill="#B2451D"/>
</svg>
