<svg width="25" height="26" viewBox="0 0 25 26" fill="none" xmlns="http://www.w3.org/2000/svg">
<path d="M3.99155 0.568579C3.12061 0.759231 2.28881 1.4094 1.89248 2.21112C1.27108 3.46258 1.49616 4.85092 2.46985 5.82373C3.68819 7.04586 5.65025 7.05564 6.84901 5.84817C7.24045 5.4522 7.46063 5.10512 7.64167 4.59183C7.7542 4.27896 7.77378 4.15675 7.77378 3.6239C7.77378 3.09105 7.7542 2.96884 7.64167 2.65597C7.46063 2.14268 7.24045 1.7956 6.84901 1.39963C6.11997 0.666349 5.02395 0.348596 3.99155 0.568579ZM5.31753 2.21601C6.29122 2.66575 6.53097 3.9661 5.77257 4.72382C5.17563 5.31533 4.16769 5.31533 3.57076 4.72382C3.18911 4.34251 3.02764 3.72656 3.16954 3.22793C3.44843 2.27956 4.4368 1.81515 5.31753 2.21601Z" fill="white"/>
<path d="M11.8202 0.568579C10.9493 0.759231 10.1175 1.4094 9.72116 2.21112C9.09976 3.46258 9.32483 4.85092 10.2985 5.82373C11.5169 7.04586 13.4789 7.05564 14.6777 5.84817C15.0691 5.4522 15.2893 5.10512 15.4703 4.59183C15.5829 4.27896 15.6025 4.15675 15.6025 3.6239C15.6025 3.09105 15.5829 2.96884 15.4703 2.65597C15.2893 2.14268 15.0691 1.7956 14.6777 1.39963C13.9486 0.666349 12.8526 0.348596 11.8202 0.568579ZM13.1462 2.21601C13.4887 2.37244 13.7529 2.63642 13.9144 2.98351C14.1786 3.54568 14.0465 4.27407 13.6012 4.72382C13.0043 5.31533 11.9964 5.31533 11.3994 4.72382C11.0178 4.34251 10.8563 3.72656 10.9982 3.22793C11.2771 2.27956 12.2655 1.81515 13.1462 2.21601Z" fill="white"/>
<path d="M19.6489 0.568579C18.778 0.759231 17.9462 1.4094 17.5498 2.21112C16.9284 3.46258 17.1535 4.85092 18.1272 5.82373C19.3455 7.04586 21.3076 7.05564 22.5064 5.84817C22.8978 5.4522 23.118 5.10512 23.299 4.59183C23.4116 4.27896 23.4311 4.15675 23.4311 3.6239C23.4311 3.09105 23.4116 2.96884 23.299 2.65597C23.118 2.14268 22.8978 1.7956 22.5064 1.39963C21.7773 0.666349 20.6813 0.348596 19.6489 0.568579ZM20.9749 2.21601C21.3174 2.37244 21.5816 2.63642 21.7431 2.98351C22.0073 3.54568 21.8752 4.27407 21.4299 4.72382C20.833 5.31533 19.825 5.31533 19.2281 4.72382C18.8465 4.34251 18.685 3.72656 18.8269 3.22793C19.1058 2.27956 20.0942 1.81515 20.9749 2.21601Z" fill="white"/>
<path d="M1.79952 8.38531C1.23683 8.5613 0.825828 9.02571 0.713291 9.60744C0.683933 9.74432 0.507788 11.4749 0.312071 13.4498C-0.0353264 16.9989 -0.0402193 17.0478 0.0478533 17.2286C0.0967825 17.3313 0.214213 17.4731 0.307178 17.5464C0.468645 17.6686 0.517574 17.6784 1.06069 17.693C1.37873 17.7028 1.63805 17.7126 1.63805 17.7175C1.64295 18.0108 2.2937 22.7869 2.35242 22.9433C2.46006 23.2611 2.80257 23.6326 3.14507 23.7988L3.42397 23.9357H5.91936L6.19826 23.7988C6.54076 23.6326 6.88327 23.2611 6.99091 22.9433C7.03495 22.8162 7.17195 21.9265 7.29427 20.9635C7.51445 19.2476 7.51934 19.2036 7.43617 18.9934C7.31384 18.6707 7.07409 18.5094 6.72669 18.5094C6.49672 18.5094 6.41844 18.5339 6.26676 18.6512C6.16401 18.7294 6.05147 18.8614 6.01722 18.9445C5.98297 19.0276 5.86064 19.8391 5.74321 20.7435L5.53282 22.3958H4.69124C4.22641 22.3958 3.83497 22.3762 3.8203 22.3567C3.80562 22.3322 3.63926 21.0857 3.44843 19.58C3.25761 18.0792 3.08636 16.7936 3.07168 16.7251C3.02764 16.5394 2.83682 16.3096 2.65089 16.2167C2.53346 16.1629 2.34753 16.1385 2.05884 16.1385C1.75548 16.1385 1.63805 16.1238 1.63805 16.0749C1.63805 16.0456 1.77016 14.6377 1.94141 12.9463L2.24478 9.8812H4.31448C6.61905 9.8812 6.60926 9.8812 6.85391 9.55856C6.97134 9.40701 6.9958 9.3288 6.9958 9.09904C6.9958 8.86928 6.97134 8.79106 6.85391 8.63951C6.60926 8.31199 6.63373 8.31687 4.19705 8.32176C2.53835 8.32176 1.95609 8.34132 1.79952 8.38531Z" fill="white"/>
<path d="M9.62819 8.38531C9.18783 8.52708 8.86001 8.82039 8.66429 9.24569C8.54686 9.4999 8.51261 9.79321 8.16521 13.2787C7.78846 17.0087 7.78846 17.0429 7.87653 17.2286C7.92546 17.3313 8.04289 17.4731 8.13585 17.5464C8.29732 17.6686 8.34625 17.6784 8.87468 17.693L9.44226 17.7126L9.77498 21.0123C10.0832 24.097 10.1126 24.3365 10.23 24.6054C10.3817 24.9329 10.6851 25.2409 11.0227 25.3925C11.238 25.4951 11.326 25.5 12.5003 25.5C13.6746 25.5 13.7627 25.4951 13.978 25.3925C14.3156 25.2409 14.619 24.9329 14.7707 24.6054C14.8881 24.3365 14.9174 24.097 15.2257 21.0123L15.5584 17.7126L16.126 17.693C16.6544 17.6784 16.7034 17.6686 16.8648 17.5464C16.9578 17.4731 17.0752 17.3313 17.1242 17.2286C17.2122 17.0429 17.2122 17.0087 16.8404 13.2836C16.4832 9.75899 16.4538 9.50478 16.3315 9.23591C16.1847 8.90838 15.8813 8.60041 15.5437 8.44886C15.3187 8.34132 15.2697 8.34132 12.5737 8.33154C10.416 8.32176 9.78966 8.33643 9.62819 8.38531ZM15.2306 12.9707C15.3969 14.6719 15.5388 16.0798 15.534 16.0994C15.534 16.1238 15.348 16.1385 15.1181 16.1385C14.5407 16.1385 14.2569 16.2803 14.1248 16.6273C14.1003 16.6958 13.9144 18.3725 13.7187 20.3573L13.3566 23.9601H11.6441L11.3309 20.8412C10.8955 16.4318 10.9248 16.6616 10.7634 16.4514C10.5774 16.2069 10.3817 16.1385 9.88263 16.1385C9.65266 16.1385 9.46673 16.1238 9.46673 16.0994C9.46183 16.0798 9.60373 14.6719 9.77009 12.9707L10.0783 9.8812H14.9223L15.2306 12.9707Z" fill="white"/>
<path d="M18.4452 8.38531C17.9853 8.58574 17.8385 9.21147 18.1614 9.59278C18.4061 9.8812 18.4159 9.8812 20.6862 9.8812H22.7559L23.0593 12.9463C23.2256 14.6377 23.3626 16.0456 23.3626 16.0749C23.3626 16.1238 23.2452 16.1385 22.9467 16.1385C22.4476 16.1385 22.2519 16.2069 22.066 16.4514C21.9192 16.6469 21.9143 16.6665 21.3516 21.115L21.1902 22.3958H20.3486C19.8838 22.3958 19.4923 22.3762 19.4776 22.3518C19.463 22.3322 19.3602 21.599 19.2526 20.7288C19.1449 19.8587 19.0324 19.0765 19.003 18.9885C18.9737 18.9005 18.8758 18.7636 18.7877 18.6854C18.4844 18.4214 18.0538 18.4263 17.7651 18.6952C17.4569 18.9836 17.4569 19.0325 17.7064 20.9781C17.8287 21.9314 17.9657 22.8162 18.0098 22.9433C18.1174 23.2611 18.4599 23.6326 18.8024 23.7988L19.0813 23.9357H21.5767L21.8556 23.7988C22.1981 23.6326 22.5406 23.2611 22.6483 22.9433C22.707 22.7869 23.3577 18.0108 23.3626 17.7175C23.3626 17.7126 23.622 17.7028 23.94 17.693C24.4831 17.6784 24.532 17.6686 24.6935 17.5464C24.7865 17.4731 24.9039 17.3313 24.9528 17.2286C25.0409 17.0478 25.036 17.0038 24.669 13.3032C24.4244 10.8198 24.2727 9.48523 24.2189 9.33368C24.1063 9.01593 23.7638 8.6444 23.4213 8.47819L23.1424 8.34132L20.8672 8.33154C19.0471 8.32176 18.5627 8.33154 18.4452 8.38531Z" fill="white"/>
</svg>
