<svg width="17" height="18" viewBox="0 0 17 18" fill="none" xmlns="http://www.w3.org/2000/svg">
<path d="M7.4375 16.6875V10.3125H1.0625C0.475697 10.3125 0 9.8368 0 9.25C0 8.6632 0.475697 8.1875 1.0625 8.1875H7.4375V1.8125C7.4375 1.2257 7.9132 0.75 8.5 0.75C9.0868 0.75 9.5625 1.2257 9.5625 1.8125V8.1875H15.9375C16.5243 8.1875 17 8.6632 17 9.25C17 9.8368 16.5243 10.3125 15.9375 10.3125H9.5625V16.6875C9.5625 17.2743 9.0868 17.75 8.5 17.75C7.9132 17.75 7.4375 17.2743 7.4375 16.6875Z" fill="white"/>
</svg>
