<svg width="25" height="26" viewBox="0 0 25 26" fill="none" xmlns="http://www.w3.org/2000/svg">
<path d="M21.875 8.83333V6.75C21.875 5.03125 20.4688 3.625 18.75 3.625H14.5833C13.7812 3.625 13.0521 3.9375 12.5 4.4375C11.9479 3.9375 11.2188 3.625 10.4167 3.625H6.25C4.53125 3.625 3.125 5.03125 3.125 6.75V8.83333C1.40625 8.83333 0 10.2396 0 11.9583V17.1667C0 18.8854 1.40625 20.2917 3.125 20.2917V22.375H5.20833V20.2917H19.7917V22.375H21.875V20.2917C23.5938 20.2917 25 18.8854 25 17.1667V11.9583C25 10.2396 23.5938 8.83333 21.875 8.83333ZM14.5833 5.70833H18.75C19.3229 5.70833 19.7917 6.17708 19.7917 6.75V9.64583C19.1562 10.2187 18.75 11.0417 18.75 11.9583V14.0417H13.5417V6.75C13.5417 6.17708 14.0104 5.70833 14.5833 5.70833ZM5.20833 6.75C5.20833 6.17708 5.67708 5.70833 6.25 5.70833H10.4167C10.9896 5.70833 11.4583 6.17708 11.4583 6.75V14.0417H6.25V11.9583C6.25 11.0417 5.84375 10.2187 5.20833 9.64583V6.75ZM22.9167 17.1667C22.9167 17.7396 22.4479 18.2083 21.875 18.2083H3.125C2.55208 18.2083 2.08333 17.7396 2.08333 17.1667V11.9583C2.08333 11.3854 2.55208 10.9167 3.125 10.9167C3.69792 10.9167 4.16667 11.3854 4.16667 11.9583V16.125H20.8333V11.9583C20.8333 11.3854 21.3021 10.9167 21.875 10.9167C22.4479 10.9167 22.9167 11.3854 22.9167 11.9583V17.1667Z" fill="white"/>
</svg>
