<svg width="21" height="26" viewBox="0 0 21 26" fill="none" xmlns="http://www.w3.org/2000/svg">
<path d="M12.7569 19.8182C12.7569 19.2154 12.519 18.6375 12.0957 18.2113C11.6725 17.7851 11.0986 17.5455 10.5 17.5455C9.90142 17.5455 9.32753 17.7851 8.90427 18.2113C8.48101 18.6375 8.24306 19.2154 8.24306 19.8182C8.24306 20.4458 7.73782 20.9545 7.11458 20.9545C6.49135 20.9545 5.98611 20.4458 5.98611 19.8182C5.98611 18.6127 6.46202 17.4568 7.30854 16.6044C8.15506 15.752 9.30284 15.2727 10.5 15.2727C11.6972 15.2727 12.8449 15.752 13.6915 16.6044C14.538 17.4568 15.0139 18.6127 15.0139 19.8182C15.0139 20.4458 14.5087 20.9545 13.8854 20.9545C13.2622 20.9545 12.7569 20.4458 12.7569 19.8182ZM11.6285 6.18182V1.63636C11.6285 1.00877 12.1337 0.5 12.7569 0.5C13.3802 0.5 13.8854 1.00877 13.8854 1.63636V6.18182C13.8854 6.4832 14.0044 6.77215 14.216 6.98526C14.4277 7.19837 14.7146 7.31818 15.0139 7.31818H19.5278C20.151 7.31818 20.6562 7.82695 20.6562 8.45455C20.6562 9.08214 20.151 9.59091 19.5278 9.59091H15.0139C14.116 9.59091 13.2552 9.23148 12.6203 8.59215C11.9854 7.95282 11.6285 7.08597 11.6285 6.18182Z" fill="white"/>
<path d="M0.34375 22.0909V3.90909C0.34375 3.00494 0.700682 2.13809 1.33557 1.49876C1.97046 0.859428 2.8313 0.5 3.72917 0.5H13.8854L13.9967 0.505549C14.2551 0.531333 14.4981 0.646393 14.6833 0.832919L20.3256 6.51474C20.5373 6.72785 20.6562 7.0168 20.6562 7.31818V22.0909C20.6562 22.9951 20.2993 23.8619 19.6644 24.5012C19.0295 25.1406 18.1687 25.5 17.2708 25.5H3.72917C2.8313 25.5 1.97046 25.1406 1.33557 24.5012C0.700683 23.8619 0.34375 22.9951 0.34375 22.0909ZM2.60069 22.0909C2.60069 22.3923 2.71967 22.6812 2.9313 22.8944C3.14293 23.1075 3.42988 23.2273 3.72917 23.2273H17.2708C17.5701 23.2273 17.8571 23.1075 18.0687 22.8944C18.2803 22.6812 18.3993 22.3923 18.3993 22.0909V7.78871L13.4182 2.77273H3.72917C3.42988 2.77273 3.14293 2.89254 2.9313 3.10565C2.71967 3.31876 2.60069 3.60771 2.60069 3.90909V22.0909Z" fill="white"/>
<path d="M11.6285 14.1364C11.6285 13.5088 11.1232 13 10.5 13C9.87676 13 9.37153 13.5088 9.37153 14.1364C9.37153 14.764 9.87676 15.2727 10.5 15.2727C11.1232 15.2727 11.6285 14.764 11.6285 14.1364ZM13.8854 14.1364C13.8854 16.0192 12.3697 17.5455 10.5 17.5455C8.63029 17.5455 7.11458 16.0192 7.11458 14.1364C7.11458 12.2536 8.63029 10.7273 10.5 10.7273C12.3697 10.7273 13.8854 12.2536 13.8854 14.1364Z" fill="white"/>
</svg>
