<svg width="16" height="17" viewBox="0 0 14 15" fill="none" xmlns="http://www.w3.org/2000/svg">
<g opacity="0.8">
<path d="M12.7548 2.6635L12.8376 2.66761C13.2448 2.71078 13.5625 3.06919 13.5625 3.50461C13.5625 3.94003 13.2448 4.29843 12.8376 4.34161L12.7548 4.34572H1.24519C0.799116 4.34572 0.4375 3.96914 0.4375 3.50461C0.4375 3.04008 0.799116 2.6635 1.24519 2.6635H12.7548Z" fill="#B2451D"/>
<path d="M1.71635 12.8266V3.50461C1.71635 3.04008 2.07796 2.6635 2.52404 2.6635C2.97011 2.6635 3.33173 3.04008 3.33173 3.50461V12.8266L3.33962 12.8833C3.35581 12.951 3.40009 13.0489 3.495 13.1478C3.62119 13.2791 3.7455 13.3177 3.80262 13.3178H10.1971C10.2541 13.3178 10.3791 13.2794 10.5055 13.1478C10.6318 13.0161 10.668 12.886 10.668 12.8266V3.50461C10.668 3.04017 11.0297 2.66365 11.4757 2.6635C11.9218 2.6635 12.2834 3.04008 12.2834 3.50461V12.8266C12.2834 13.433 12.0007 13.9694 11.6476 14.3371C11.2945 14.7049 10.7795 15 10.1971 15H3.80262C3.2204 14.9999 2.70596 14.7048 2.35288 14.3371C2.02185 13.9924 1.75195 13.4998 1.7195 12.9399L1.71635 12.8266Z" fill="#B2451D"/>
<path d="M8.74974 3.50488V2.17258C8.74963 2.11312 8.71327 1.9836 8.58725 1.85224C8.46082 1.72058 8.33587 1.68221 8.27885 1.68221H5.72089C5.66375 1.68233 5.53951 1.72079 5.41327 1.85224C5.28704 1.9837 5.25011 2.11308 5.25 2.17258V3.50488C5.24986 3.96929 4.8883 4.34599 4.44231 4.34599C3.99632 4.34599 3.63476 3.96929 3.63462 3.50488V2.17258C3.6347 1.5662 3.91806 1.03056 4.27115 0.662864C4.62423 0.29517 5.1386 8.87111e-05 5.72089 0H8.27885C8.86125 0 9.37624 0.295115 9.72938 0.662864C10.0823 1.03055 10.365 1.56635 10.3651 2.17258V3.50488C10.365 3.96929 10.0034 4.34599 9.55743 4.34599C9.11156 4.34584 8.74988 3.9692 8.74974 3.50488Z" fill="#B2451D"/>
</g>
</svg>
